<svg version="1.1" id="Layer_1" xmlns="http://www.w3.org/2000/svg" xmlns:xlink="http://www.w3.org/1999/xlink" x="0px" y="0px"
	 width="32px" viewBox="0 0 225 225" enable-background="new 0 0 225 225" xml:space="preserve">
<path fill="#4d2d20" opacity="1.000000" stroke="none" 
	d="
M59.864693,132.602798 
	C66.693703,122.463036 65.181198,110.305733 67.918640,99.175728 
	C69.662903,92.083786 71.012497,84.895454 72.711426,77.791565 
	C77.563873,57.501629 91.815575,47.118866 111.074966,43.208164 
	C138.283920,37.683270 165.866440,50.641010 175.510666,77.672821 
	C175.669022,78.116676 176.085831,78.468315 176.736145,79.343903 
	C177.392761,82.209053 177.695297,84.593277 178.149170,87.424820 
	C178.229004,91.600487 178.157486,95.328819 178.085968,99.057159 
	C177.013443,113.042305 171.653366,125.369926 162.955170,136.675186 
	C157.499573,133.952271 152.928070,130.288803 147.720520,128.664291 
	C141.193451,126.628136 134.650497,124.750572 127.103188,126.492371 
	C120.541306,128.006760 114.164360,129.235443 108.427704,132.822449 
	C104.937790,135.004608 100.526474,136.567764 98.255928,139.672043 
	C93.135651,146.672455 87.898804,153.902222 87.061005,163.070786 
	C86.897629,164.539246 86.734261,166.007706 86.495384,168.154877 
	C73.170586,166.326538 60.970085,161.752411 49.271294,155.150085 
	C52.840729,147.224960 56.352715,139.913879 59.864693,132.602798 
M95.919525,132.584854 
	C105.464767,126.273613 111.109283,117.927223 110.025826,105.953751 
	C108.802704,92.436783 95.075783,83.474297 85.029572,90.387543 
	C80.248627,93.677521 75.153572,98.940048 73.780327,104.237022 
	C71.091125,114.610039 70.911919,125.633766 69.668732,136.609512 
	C79.161339,137.570053 87.461891,137.020355 95.919525,132.584854 
M158.770950,72.946594 
	C153.717789,66.089615 147.510818,64.033310 141.208435,67.128311 
	C135.059097,70.148155 131.744247,77.666389 133.615112,84.350288 
	C135.700760,91.801468 141.433960,95.767181 148.712036,95.143219 
	C156.654587,94.462296 164.258987,83.794991 158.770950,72.946594 
z"/>
<path fill="#b18466" opacity="1.000000" stroke="none" 
	d="
M87.397736,163.279999 
	C87.898804,153.902222 93.135651,146.672455 98.255928,139.672043 
	C100.526474,136.567764 104.937790,135.004608 108.427704,132.822449 
	C114.164360,129.235443 120.541306,128.006760 127.103188,126.492371 
	C134.650497,124.750572 141.193451,126.628136 147.720520,128.664291 
	C152.928070,130.288803 157.499573,133.952271 162.663864,136.848618 
	C156.987854,147.603226 147.968048,155.076874 137.541336,160.888504 
	C122.165428,169.458664 105.695068,171.570694 88.309586,168.597702 
	C88.100281,166.738602 87.917374,165.113907 87.397736,163.279999 
z"/>

<path fill="#54251a" opacity="1.000000" stroke="none" 
	d="
M19.002220,147.284729 
	C22.745834,146.189072 26.489447,145.093399 30.774643,144.227844 
	C31.878252,144.061920 32.440277,143.665924 33.002300,143.269928 
	C40.066212,140.468552 47.130127,137.667206 54.572090,135.173126 
	C52.321365,142.054626 49.692593,148.628860 47.063820,155.203094 
	C40.639515,157.482590 34.215214,159.762085 27.245617,161.801727 
	C26.132723,161.946548 25.565123,162.331253 24.997526,162.715958 
	C22.613394,163.192703 20.229261,163.669464 17.299328,163.883698 
	C16.167694,163.949799 15.581858,164.278412 14.996019,164.607025 
	C13.931837,164.757065 12.867656,164.907104 11.263034,164.790970 
	C10.243048,164.348022 9.763503,164.171265 9.283957,163.994507 
	C8.784620,162.109955 8.285284,160.225403 7.841418,157.609161 
	C7.603872,156.252640 7.310855,155.627823 7.017837,155.002991 
	C6.709571,154.210526 6.401305,153.418076 6.255876,152.210449 
	C6.305214,151.533081 6.191717,151.270874 6.078220,151.008652 
	C6.513144,150.672836 6.948066,150.337021 7.890911,150.271515 
	C9.266611,150.122787 10.134388,149.703751 11.002165,149.284729 
	C11.440165,149.171005 11.878163,149.057281 12.810127,149.192993 
	C13.870162,149.051834 14.436230,148.661224 15.002295,148.270615 
	C15.164071,148.197342 15.325848,148.124069 15.948863,148.304749 
	C17.274141,148.134033 18.138182,147.709381 19.002220,147.284729 
z"/>
<path fill="#342f2c" opacity="1.000000" stroke="none" 
	d="
M177.997833,86.977501 
	C177.695297,84.593277 177.392761,82.209053 177.074081,79.474655 
	C181.740463,80.052322 186.461151,80.822021 191.097595,81.940834 
	C200.867477,84.298363 210.593216,86.838814 220.258667,90.303719 
	C209.359222,90.303719 198.459595,90.274498 187.560501,90.335716 
	C185.955154,90.344719 184.352203,90.782440 182.569244,91.496803 
	C181.674225,91.648415 180.958115,91.325020 180.160400,90.658157 
	C179.385132,89.202286 178.691483,88.089897 177.997833,86.977501 
z"/>
<path fill="#342f2c" opacity="1.000000" stroke="none" 
	d="
M180.242004,91.001625 
	C180.958115,91.325020 181.674225,91.648415 182.687622,91.988464 
	C192.990967,95.316269 202.997025,98.627419 213.003098,101.938568 
	C212.965714,102.254295 212.928329,102.570023 212.890945,102.885750 
	C211.676697,102.989326 210.452118,103.250313 209.249847,103.171349 
	C200.308380,102.584137 191.368683,101.962601 182.436691,101.248528 
	C181.465561,101.170891 180.546936,100.436691 179.759735,99.137024 
	C180.024338,95.845215 180.133179,93.423424 180.242004,91.001625 
z"/>

<path fill="#54251a" opacity="1.000000" stroke="none" 
	d="
M121.270943,169.966522 
	C122.105446,171.376801 122.853546,172.861893 122.927505,174.379837 
	C123.111404,178.153870 122.988007,181.942871 121.999718,185.792953 
	C119.507874,180.736786 119.658752,175.449646 121.270943,169.966522 
z"/>
<path fill="#54251a" opacity="1.000000" stroke="none" 
	d="
M108.938606,182.703003 
	C109.533073,178.790237 107.496162,174.821838 111.784897,170.595001 
	C111.784897,175.882233 111.860992,179.869888 111.712975,183.849197 
	C111.687103,184.544785 110.718628,185.205322 110.185493,185.882050 
	C109.769844,184.975098 109.354195,184.068146 108.938606,182.703003 
z"/>


<path fill="#D4985F" opacity="1.000000" stroke="none" 
	d="
M95.584366,132.751465 
	C87.461891,137.020355 79.161339,137.570053 69.668732,136.609512 
	C70.911919,125.633766 71.091125,114.610039 73.780327,104.237022 
	C75.153572,98.940048 80.248627,93.677521 85.029572,90.387543 
	C95.075783,83.474297 108.802704,92.436783 110.025826,105.953751 
	C111.109283,117.927223 105.464767,126.273613 95.584366,132.751465 
z"/>
<path fill="#F8F8F8" opacity="1.000000" stroke="none" 
	d="
M158.927002,73.294029 
	C164.258987,83.794991 156.654587,94.462296 148.712036,95.143219 
	C141.433960,95.767181 135.700760,91.801468 133.615112,84.350288 
	C131.744247,77.666389 135.059097,70.148155 141.208435,67.128311 
	C147.510818,64.033310 153.717789,66.089615 158.927002,73.294029 
M148.599182,72.610481 
	C143.195160,74.060936 140.959839,77.136337 141.952988,81.754448 
	C142.767258,85.540802 146.589462,87.949493 150.673599,87.217216 
	C154.507797,86.529747 156.624741,83.845116 156.707443,80.329422 
	C156.814407,75.782104 154.180405,72.970680 148.599182,72.610481 
z"/>
<path fill="#141212" opacity="1.000000" stroke="none" 
	d="
M149.013885,72.579460 
	C154.180405,72.970680 156.814407,75.782104 156.707443,80.329422 
	C156.624741,83.845116 154.507797,86.529747 150.673599,87.217216 
	C146.589462,87.949493 142.767258,85.540802 141.952988,81.754448 
	C140.959839,77.136337 143.195160,74.060936 149.013885,72.579460 
z"/>
</svg>